<svg xmlns="http://www.w3.org/2000/svg" width="20" height="20" fill="none" viewBox="0 0 20 20">
  <path fill="#77889A" fill-rule="evenodd" d="M17.314 7.138a.636.636 0 000-.9L13.76 2.687a.636.636 0 00-.899 0L2.686 12.862a.636.636 0 00-.186.45v3.552c0 .351.285.636.636.636h3.552c.17 0 .33-.067.45-.186L17.314 7.138zm-4.716 2.917l-6.173 6.173H3.772v-2.653l6.174-6.173 2.652 2.653zm2.172-2.172l1.195-1.195-2.653-2.653-1.195 1.195 2.653 2.653zM11.217 6.13l-.372.372 2.653 2.653.373-.372-2.654-2.653z" clip-rule="evenodd"/>
</svg>
