<svg xmlns="http://www.w3.org/2000/svg" width="68" height="24" fill="none" viewBox="0 0 68 24">
  <rect width="5.324" height="5.046" y="2" fill="#13D4FF" rx="2.523"/>
  <path fill="url(#paint0_linear_1305_2551)" fill-rule="evenodd" d="M22.112 9.53v-.056c0-3.378-2.82-6.116-6.408-6.116-3.589 0-6.586 2.738-6.586 6.116 0 3.377 2.909 6.116 6.497 6.116h.016V9.53h6.481z" clip-rule="evenodd"/>
  <path fill="url(#paint1_linear_1305_2551)" fill-rule="evenodd" d="M9.026 15.58h-.689l-2.54 6.296h9.589a7.047 7.047 0 00.246 0c3.53-.064 6.373-2.864 6.373-6.226 0-3.38-2.816-6.086-6.373-6.119v6.05H9.026z" clip-rule="evenodd"/>
  <path fill="url(#paint2_linear_1305_2551)" d="M2.735 9.901h5.602v11.976H5.536a2.8 2.8 0 01-2.8-2.801V9.901z"/>
  <g>
    <path fill="#F7F9FC" d="M31.702 5.678h-2.765v14.163h2.765V5.678zM47.359 10.236a5.384 5.384 0 00-.579-1.731 5.55 5.55 0 00-1.127-1.438 5.325 5.325 0 00-1.55-.978 5.147 5.147 0 00-1.794-.401l-.226-.01h-6.932v14.163h2.755V8.436h4.276c.294.02.588.079.862.196.275.108.53.274.755.47.216.205.402.44.55.704.137.254.235.548.274.831.02.147.03.303.03.45-.01.147-.02.303-.05.44a2.532 2.532 0 01-.323.832 2.74 2.74 0 01-.363.47c-.069.067-.137.136-.216.195a.685.685 0 01-.098.078 2.174 2.174 0 01-.353.225 2.47 2.47 0 01-.323.137c-.02.01-.04.02-.06.02a2.037 2.037 0 01-.42.097 4.87 4.87 0 01-.393.04H40.24l.47.82.638 1.106.235.41.245.412.471.821 1.06 1.82.234.42.236.41h3.187l-.236-.41-.235-.42-.638-1.096-.862-1.487-.206-.361-.206-.353c.117-.068.235-.136.353-.215.117-.078.225-.156.343-.244.04-.03.088-.059.127-.098.471-.391.883-.86 1.197-1.38.314-.527.539-1.114.657-1.71.058-.304.098-.607.098-.91.01-.304-.01-.617-.05-.92zM53.014 5.678h-2.765v14.163h2.765V5.678zM59.09 5.668h7.322v2.759h-7.42c-.03.01-.059.01-.088.01l-.05.01-.038.009a.29.29 0 00-.099.02c-.117.029-.225.068-.343.127a1.623 1.623 0 00-.294.215 2.21 2.21 0 00-.245.284c-.03.048-.059.107-.088.166-.02.049-.05.107-.069.166-.04.117-.059.235-.069.362v.098c-.01.03 0 .058 0 .088 0 .068.01.127.02.186.01.058.03.117.04.176a1.522 1.522 0 00.53.743c.107.078.205.137.322.186.118.039.236.078.353.088l.05.01h.048c.03.01.06.01.089.01h4.343c.089.01.177.01.265.019.088.01.177.02.255.04.706.117 1.373.41 1.932.85.559.43 1 1.008 1.275 1.663.137.323.235.675.294 1.017.049.352.059.704.02 1.056-.03.352-.109.705-.236 1.037a4.244 4.244 0 01-.48.94 4.477 4.477 0 01-.707.782 4.372 4.372 0 01-.421.322 3.563 3.563 0 01-.461.274 4.336 4.336 0 01-1 .352c-.079.02-.167.04-.255.05-.088.019-.177.029-.265.038-.088 0-.176.01-.265.01l-.127.01h-7.962v-2.758h8.011c.03 0 .059-.01.088-.01.03 0 .06-.01.098-.01.03-.01.06-.01.088-.02.118-.019.236-.058.344-.117a.838.838 0 00.157-.098.806.806 0 00.147-.107c.098-.088.176-.176.255-.284.068-.098.117-.205.166-.323a1.586 1.586 0 00.069-.733 1.581 1.581 0 00-.098-.352 1.448 1.448 0 00-.451-.577c-.05-.04-.098-.079-.147-.108-.03-.02-.06-.03-.079-.049l-.049-.02-.039-.019a1.338 1.338 0 00-.353-.098c-.03-.01-.059-.01-.088-.02h-.098l-.04-.01h-4.216c-.088 0-.176 0-.264-.009-.05 0-.089-.01-.138-.01l-.127-.02a4.213 4.213 0 01-1.03-.273 4.735 4.735 0 01-.922-.519 4.193 4.193 0 01-1.638-2.64c-.038-.176-.048-.352-.058-.528-.01-.088-.01-.177-.01-.265 0-.088 0-.176.01-.264.03-.352.088-.694.206-1.036.059-.167.127-.333.196-.49.079-.156.167-.312.265-.46a4.137 4.137 0 011.54-1.427c.313-.166.647-.303.99-.391.088-.02.166-.04.255-.05l.137-.029.127-.01c.089-.019.177-.019.265-.029h.128l.127-.01z"/>
  </g>
  <defs>
    <linearGradient id="paint0_linear_1305_2551" x1="23.132" x2="9.12" y1="8.463" y2="9.366" gradientUnits="userSpaceOnUse">
      <stop stop-color="#13D4FF"/>
      <stop offset="1" stop-color="#1D99FF"/>
    </linearGradient>
    <linearGradient id="paint1_linear_1305_2551" x1="18.618" x2="12.551" y1="16.58" y2="28.662" gradientUnits="userSpaceOnUse">
      <stop stop-color="#13D4FF"/>
      <stop offset="1" stop-color="#2182FF"/>
    </linearGradient>
    <linearGradient id="paint2_linear_1305_2551" x1="5.536" x2="5.653" y1="9.901" y2="28.482" gradientUnits="userSpaceOnUse">
      <stop stop-color="#57B3FF"/>
      <stop offset=".484" stop-color="#43DDFF"/>
    </linearGradient>
  </defs>
</svg>
